<svg xmlns="http://www.w3.org/2000/svg" version="1.1" xmlns:xlink="http://www.w3.org/1999/xlink" width="1500" height="1500" viewBox="0 0 1500 1500"><rect width="1500" height="1500" x="0" y="0" id="background" stroke="transparent" fill="#000000"></rect><svg xml:space="preserve" width="1000" height="1000" data-version="2" data-id="lg_Axss2wdNHKvfCIHkgN" viewBox="0 0 540 648" x="250" y="250"><rect width="100%" height="100%" fill="transparent"></rect><path fill="#e9e9e9" d="M5.71 601.569v-136.54h12.28v136.54Z"></path><rect width="12.28" height="136.54" x="-6.14" y="-68.27" fill="none" rx="0" ry="0" transform="translate(12.35 533.8)"></rect><path fill="#e9e9e9" d="M112.35 576.809q0 5.9-2.38 10.81-2.38 4.9-6.48 8.42-4.09 3.53-9.47 5.48-5.38 1.95-11.28 1.95h-7.81q-5.9 0-11.28-2.24-5.38-2.23-9.43-6.14-4.05-3.9-6.48-9.14-2.42-5.24-2.42-11.14v-3.9l11.71-1.91v6.48q0 3.52 1.47 6.62 1.48 3.09 3.96 5.38 2.47 2.28 5.71 3.61 3.24 1.34 6.76 1.34h7.81q3.52 0 6.76-1.05 3.23-1.05 5.76-3 2.52-1.95 4-4.71 1.47-2.76 1.47-6.29 0-5.23-2.28-8.57-2.29-3.33-6.05-5.57-3.76-2.23-8.57-3.71-4.81-1.48-9.85-2.95-5.05-1.48-9.86-3.38-4.81-1.91-8.57-5-3.76-3.1-6.04-7.76-2.29-4.67-2.29-11.62 0-5.9 2.29-10.8 2.28-4.91 6.19-8.43 3.9-3.52 9.09-5.48 5.19-1.95 11.09-1.95h6.86q5.9 0 11.14 2.24 5.23 2.24 9.14 6.14 3.9 3.91 6.14 9.14 2.24 5.24 2.24 11.14v.38l-11.72 1.91v-2.95q0-3.53-1.33-6.62-1.33-3.1-3.62-5.38-2.28-2.29-5.38-3.62-3.09-1.33-6.61-1.33h-6.86q-3.52 0-6.62 1.05-3.09 1.04-5.38 2.99-2.28 1.96-3.61 4.72-1.34 2.76-1.34 6.28 0 5.05 2.29 8.24 2.28 3.19 6.04 5.38 3.76 2.19 8.57 3.66 4.81 1.48 9.81 3.05 5 1.57 9.81 3.57 4.81 2 8.57 5.14 3.76 3.14 6.04 7.86 2.29 4.71 2.29 11.66"></path><rect width="67.03" height="101.31" x="-33.52" y="-50.66" fill="none" rx="0" ry="0" transform="translate(79.33 553.31)"></rect><path fill="#e9e9e9" d="M199.95 574.809q0 5.9-2.24 11.14t-6.14 9.14q-3.91 3.91-9.14 6.14-5.24 2.24-11.14 2.24h-7.81q-5.9 0-11.14-2.24-5.24-2.23-9.14-6.14-3.91-3.9-6.14-9.14-2.24-5.24-2.24-11.14v-43.99q0-5.9 2.24-11.14 2.23-5.23 6.14-9.14 3.9-3.9 9.14-6.14 5.24-2.24 11.14-2.24h7.81q5.9 0 11.14 2.24 5.23 2.24 9.14 6.14 3.9 3.91 6.14 9.14 2.24 5.24 2.24 11.14zm-11.72-44.65q0-3.53-1.33-6.62-1.33-3.1-3.62-5.38-2.28-2.29-5.38-3.62-3.09-1.33-6.61-1.33h-7.81q-3.52 0-6.62 1.33-3.09 1.33-5.38 3.62-2.28 2.28-3.62 5.38-1.33 3.09-1.33 6.62v45.32q0 3.52 1.33 6.62 1.34 3.09 3.62 5.38 2.29 2.28 5.38 3.61 3.1 1.34 6.62 1.34h7.81q3.52 0 6.61-1.34 3.1-1.33 5.38-3.61 2.29-2.29 3.62-5.38 1.33-3.1 1.33-6.62Z"></path><rect width="65.13" height="101.31" x="-32.56" y="-50.66" fill="none" rx="0" ry="0" transform="translate(167.88 553.31)"></rect><path fill="#e9e9e9" d="M258.88 601.569q-5.33 0-10.04-2-4.71-2-8.19-5.52-3.48-3.53-5.52-8.19-2.05-4.67-2.05-10v-60.65h-17.52v-11.14h17.52v-23.43l11.71-1.9v25.33h24.76v11.14h-24.76v61.22q0 2.95 1.1 5.48 1.09 2.52 3 4.42 1.9 1.91 4.47 3 2.57 1.1 5.52 1.1h10.67v11.14Z"></path><rect width="53.99" height="122.83" x="-27" y="-61.41" fill="none" rx="0" ry="0" transform="translate(243.06 540.65)"></rect><path fill="#e9e9e9" d="M356.19 574.809q0 5.9-2.23 11.14-2.24 5.24-6.15 9.14-3.9 3.91-9.14 6.14-5.23 2.24-11.14 2.24h-7.8q-5.91 0-11.14-2.24-5.24-2.23-9.14-6.14-3.91-3.9-6.15-9.14-2.23-5.24-2.23-11.14v-43.99q0-5.9 2.23-11.14 2.24-5.23 6.15-9.14 3.9-3.9 9.14-6.14 5.23-2.24 11.14-2.24h7.8q5.91 0 11.14 2.24 5.24 2.24 9.14 6.14 3.91 3.91 6.15 9.14 2.23 5.24 2.23 11.14zm-11.71-44.65q0-3.53-1.33-6.62-1.33-3.1-3.62-5.38-2.28-2.29-5.38-3.62-3.09-1.33-6.62-1.33h-7.8q-3.53 0-6.62 1.33-3.1 1.33-5.38 3.62-2.29 2.28-3.62 5.38-1.33 3.09-1.33 6.62v45.32q0 3.52 1.33 6.62 1.33 3.09 3.62 5.38 2.28 2.28 5.38 3.61 3.09 1.34 6.62 1.34h7.8q3.53 0 6.62-1.34 3.1-1.33 5.38-3.61 2.29-2.29 3.62-5.38 1.33-3.1 1.33-6.62Z"></path><rect width="65.12" height="101.31" x="-32.56" y="-50.66" fill="none" rx="0" ry="0" transform="translate(324.13 553.31)"></rect><path fill="#e9e9e9" d="M444.74 574.809q0 5.9-2.23 11.14-2.24 5.24-6.15 9.14-3.9 3.91-9.14 6.14-5.23 2.24-11.14 2.24h-2.95q-6.57 0-12.19-2.66-5.61-2.67-9.61-7.43v47.23h-11.71v-136.54h3.9l6.38 9.9q4-5.43 10.04-8.62 6.05-3.19 13.19-3.19h2.95q5.91 0 11.14 2.24 5.24 2.24 9.14 6.14 3.91 3.91 6.15 9.14 2.23 5.24 2.23 11.14zm-11.71-44.65q0-3.53-1.33-6.62-1.33-3.1-3.62-5.38-2.28-2.29-5.38-3.62-3.09-1.33-6.62-1.33h-7.8q-3.53 0-6.62 1.33-3.1 1.33-5.38 3.62-2.29 2.28-3.62 5.38-1.33 3.09-1.33 6.62v45.32q0 3.52 1.33 6.62 1.33 3.09 3.62 5.38 2.28 2.28 5.38 3.61 3.09 1.34 6.62 1.34h7.8q3.53 0 6.62-1.34 3.1-1.33 5.38-3.61 2.29-2.29 3.62-5.38 1.33-3.1 1.33-6.62Z"></path><rect width="65.12" height="138.45" x="-32.56" y="-69.22" fill="none" rx="0" ry="0" transform="translate(412.68 571.88)"></rect><path fill="#e9e9e9" d="M533.29 574.809q0 5.9-2.23 11.14-2.24 5.24-6.15 9.14-3.9 3.91-9.14 6.14-5.23 2.24-11.14 2.24h-7.8q-5.91 0-11.14-2.24-5.24-2.23-9.15-6.14-3.9-3.9-6.14-9.14-2.23-5.24-2.23-11.14v-43.99q0-5.9 2.23-11.14 2.24-5.23 6.14-9.14 3.91-3.9 9.15-6.14 5.23-2.24 11.14-2.24h7.8q5.91 0 11.14 2.24 5.24 2.24 9.14 6.14 3.91 3.91 6.15 9.14 2.23 5.24 2.23 11.14v22.95h-53.41v21.71q0 3.52 1.33 6.62 1.33 3.09 3.62 5.38 2.28 2.28 5.38 3.61 3.09 1.34 6.62 1.34h7.8q3.53 0 6.62-1.34 3.1-1.33 5.38-3.61 2.29-2.29 3.62-5.38 1.33-3.1 1.33-6.62v-6.48l11.71 1.91zm-11.71-44.65q0-3.53-1.33-6.62-1.33-3.1-3.62-5.38-2.28-2.29-5.38-3.62-3.09-1.33-6.62-1.33h-7.8q-3.53 0-6.62 1.33-3.1 1.33-5.38 3.62-2.29 2.28-3.62 5.38-1.33 3.09-1.33 6.62v14.47h41.7Z"></path><rect width="65.12" height="101.31" x="-32.56" y="-50.66" fill="none" rx="0" ry="0" transform="translate(501.23 553.31)"></rect><path fill="#e9e9e9" d="M262.15 213.862a56.598 56.598 0 0 0-56.581 56.582 56.598 56.598 0 0 0 56.581 56.582 56.598 56.598 0 0 0 56.582-56.582 56.598 56.598 0 0 0-56.582-56.582m0 75.446a18.855 18.855 0 1 1 0-37.71 18.855 18.855 0 1 1 0 37.71"></path><path fill="#e9e9e9" d="M394.178 6.39v113.172a18.855 18.855 0 0 1-18.864 18.863H148.987a18.855 18.855 0 0 1-18.864-18.863V6.39a75.437 75.437 0 0 0-75.445 75.445V345.89a75.437 75.437 0 0 0 75.445 75.445h264.055a75.437 75.437 0 0 0 75.445-75.445V81.835A75.437 75.437 0 0 0 394.178 6.39M262.15 345.89a75.437 75.437 0 0 1-75.445-75.446 75.445 75.445 0 1 1 75.445 75.446"></path><path fill="#e9e9e9" d="M179.635 100.69h18.863a9.421 9.421 0 0 0 9.427-9.427V34.68c0-5.212-4.215-9.436-9.427-9.436h-18.863c-5.212 0-9.428 4.224-9.428 9.436v56.582a9.411 9.411 0 0 0 9.428 9.427"></path><path stroke="#e9e9e9" stroke-width="5.97" d="M261.874 310.598a40.375 40.375 0 0 1-40.333-40.328c0-22.246 18.093-40.345 40.333-40.345a40.381 40.381 0 0 1 40.334 40.345 40.37 40.37 0 0 1-40.334 40.328zm0-56.798a16.488 16.488 0 0 0-16.464 16.476 16.482 16.482 0 0 0 16.464 16.458 16.482 16.482 0 0 0 16.464-16.458 16.488 16.488 0 0 0-16.464-16.476zm-46.754-36.67a11.959 11.959 0 0 1-9.775-5.083l-32.76-46.79a11.935 11.935 0 0 1 2.75-16.495 149.555 149.555 0 0 1 88.574-28.769c30.19 0 59.304 8.904 84.182 25.756a11.923 11.923 0 0 1 3.092 16.726L318.42 209.26a11.94 11.94 0 0 1-16.35 3.109 69.073 69.073 0 0 0-38.162-11.41c-15.15 0-29.55 4.774-41.646 13.803a11.965 11.965 0 0 1-7.143 2.369zm-15.951-55.532 19.137 27.325a92.781 92.781 0 0 1 45.61-11.834c14.405 0 28.452 3.283 41.198 9.566l19.233-27.468a125.942 125.942 0 0 0-60.432-15.33 125.84 125.84 0 0 0-64.746 17.741zm10.186 247.963c-1.575 0-3.18-.31-4.72-.972-57.997-24.998-94.434-84.117-90.663-147.09a11.953 11.953 0 0 1 12.818-11.19l56.96 4.333a11.935 11.935 0 0 1 11.015 12.478c-1.402 29.085 15.778 56.2 42.756 67.467a11.923 11.923 0 0 1 6.272 15.939l-23.56 52.036a11.947 11.947 0 0 1-10.878 7zm-71.698-134.487c1.647 44.427 26.806 85.107 65.886 106.459l13.767-30.404a93.831 93.831 0 0 1-46.218-73.513zM316.936 409.33a11.947 11.947 0 0 1-11.07-7.46l-21.41-52.96a11.935 11.935 0 0 1 6.27-15.408c26.705-11.684 43.348-39.116 41.432-68.255a11.923 11.923 0 0 1 11.482-12.71l57.096-2.03c6.409-.286 11.994 4.792 12.34 11.297 3.366 63.07-33.405 121.98-91.492 146.583a11.94 11.94 0 0 1-4.648.943zm-6.278-59.292 12.573 31.096c39.063-21.22 64.323-61.834 66.095-106.333l-33.358 1.187a93.748 93.748 0 0 1-45.31 74.05z"></path></svg></svg>